<svg id="Layer_1" data-name="Layer 1" xmlns="http://www.w3.org/2000/svg" xmlns:xlink="http://www.w3.org/1999/xlink" viewBox="0 0 2103.26 2229.76"><defs><style>.cls-1{fill-rule:evenodd;fill:url(#linear-gradient);}</style><linearGradient id="linear-gradient" x1="168.12" y1="1676.83" x2="1120.44" y2="-546.8" gradientTransform="matrix(1, 0, 0, -1, 334, 1526)" gradientUnits="userSpaceOnUse"><stop offset="0" stop-color="#ff8f71"/><stop offset="1" stop-color="#ff3e55"/></linearGradient></defs><path class="cls-1" d="M1164,173.78,433.41-121.41,138.22,609.21,776.13,866.94a100,100,0,0,0,130.18-55.25Zm119.61,48.33L2014.27,517.3l-295.19,730.62L1081.17,990.19A100,100,0,0,1,1025.92,860ZM640.82,1813.16l730.62,295.19,295.19-730.63L1028.73,1120a100,100,0,0,0-130.18,55.26ZM-60.29,1103.68C-141.68,1305.12-44,1535.2,157.42,1616.59s431.52-16.28,512.91-217.72S654.05,967.35,452.61,886,21.1,902.24-60.29,1103.68Z" transform="translate(88.99 121.41)"/></svg>